<svg width="32" height="32" viewBox="0 0 32 32" xmlns="http://www.w3.org/2000/svg">
  <defs>
    <linearGradient id="sea" x1="0" y1="0" x2="0" y2="1">
      <stop offset="0" stop-color="#4ea5b8" />
      <stop offset="0.55" stop-color="#1e7392" />
      <stop offset="1" stop-color="#0e4a66" />
    </linearGradient>
    <clipPath id="badge"><rect x="2" y="2" width="28" height="28" rx="8" /></clipPath>
  </defs>
  <rect x="2" y="2" width="28" height="28" rx="8" fill="url(#sea)" />
  <path clip-path="url(#badge)" d="M2 25c2.5-1.6 5-1.6 7.5-.3s5 1.8 7.5.2 5-2 7.5-.6 3.3 1 5.5.4V30H2z" fill="#0e4a66" />
  <g transform="translate(6.5,4.5) scale(0.79)" fill="none" stroke="#fbf5e9" stroke-width="2.3" stroke-linecap="round" stroke-linejoin="round">
    <path d="M16 21v-2a4 4 0 0 0-4-4H6a4 4 0 0 0-4 4v2" />
    <path d="M16 3.128a4 4 0 0 1 0 7.744" />
    <path d="M22 21v-2a4 4 0 0 0-3-3.87" />
    <circle cx="9" cy="7" r="4" />
  </g>
</svg>
